<svg id="Layer_1" data-name="Layer 1" xmlns="http://www.w3.org/2000/svg" viewBox="0 0 170.24 170.24"><defs><style>.cls-1{fill:#fff;}</style></defs><title>logo</title><path class="cls-1" d="M179,265.12a84.48,84.48,0,0,1-50.26-16.44l-3.16-2.31,3.73-1.2a20.21,20.21,0,0,0,3.73-1.65c5.54-3.21,9.21-9,10.33-16.17a36.65,36.65,0,0,0-21.89-37.92c-6.82-2.65-13.63-2.34-19.17.86a19.42,19.42,0,0,0-4.12,3.2l-2.82,2.86-.58-4A86.23,86.23,0,0,1,93.88,180a85.12,85.12,0,1,1,169.37,12.07l-.46,3.23-2.67-1.87c-10.74-7.56-27.12-3.2-37.29,9.92-10.39,13.38-10.23,31,.35,39.17h0a19.43,19.43,0,0,0,5.26,2.9l3.53,1.29-3,2.21A84.46,84.46,0,0,1,179,265.12Zm-44.95-17.6a81.07,81.07,0,0,0,89.68.14,23.92,23.92,0,0,1-3-2h0c-12.32-9.56-12.8-29.65-1.06-44.78,10.67-13.76,27.63-18.81,40-12.42A81.12,81.12,0,1,0,97.88,180a79.83,79.83,0,0,0,.42,8.14,21.61,21.61,0,0,1,2-1.31c6.62-3.82,14.65-4.22,22.62-1.13A40.61,40.61,0,0,1,147.32,228c-1.3,8.44-5.66,15.2-12.28,19C134.71,247.17,134.39,247.35,134.05,247.52Z" transform="translate(-93.88 -94.88)"/><path class="cls-1" d="M140.44,203.76c-9-15.66-26.56-22.46-39.13-15.2a21.29,21.29,0,0,0-4.54,3.52,83,83,0,0,0,33.15,55,21.54,21.54,0,0,0,4.12-1.82C146.61,238,149.48,219.41,140.44,203.76Z" transform="translate(-93.88 -94.88)"/><path class="cls-1" d="M129.56,249.29l-.82-.61a85.56,85.56,0,0,1-33.95-56.31l-.15-1,.7-.71a23.5,23.5,0,0,1,5-3.85c6.62-3.82,14.65-4.22,22.62-1.13a39,39,0,0,1,19.25,17.06h0a39,39,0,0,1,5.14,25.2c-1.3,8.44-5.66,15.2-12.28,19a23,23,0,0,1-4.5,2ZM98.9,192.8a81.62,81.62,0,0,0,31.36,52,19.68,19.68,0,0,0,2.78-1.31c5.54-3.21,9.21-9,10.33-16.17a34.91,34.91,0,0,0-4.66-22.59h0a34.91,34.91,0,0,0-17.23-15.33c-6.82-2.65-13.63-2.34-19.17.86A19.19,19.19,0,0,0,98.9,192.8Z" transform="translate(-93.88 -94.88)"/><path class="cls-1" d="M221.25,202.12c-11.08,14.28-10.77,33.08.71,42a21.64,21.64,0,0,0,5.79,3.2,83,83,0,0,0,33.52-55.51C249.76,183.69,232.07,188.17,221.25,202.12Z" transform="translate(-93.88 -94.88)"/><path class="cls-1" d="M228.07,249.54l-1-.36a23.79,23.79,0,0,1-6.34-3.5c-12.32-9.56-12.8-29.65-1.06-44.78h0c11.49-14.81,30.27-19.53,42.75-10.75l1,.71-.17,1.21a85.5,85.5,0,0,1-34.32,56.85Zm-5.24-46.19c-10.39,13.38-10.23,31,.35,39.17a19.53,19.53,0,0,0,4.28,2.51,81.5,81.5,0,0,0,31.64-52.27c-10.73-6.61-26.41-2.12-36.27,10.59Z" transform="translate(-93.88 -94.88)"/><path class="cls-1" d="M231.88,202.5c-15.14-8.44-33.11-7.73-33.11-7.73s3.36-5.54,14.95-6.83S231.88,202.5,231.88,202.5Z" transform="translate(-93.88 -94.88)"/><path class="cls-1" d="M161,194.66c-16.88-1.12-32.42,6.91-32.42,6.91s.64-6.22,10.32-12.14S161,194.66,161,194.66Z" transform="translate(-93.88 -94.88)"/><path class="cls-1" d="M167.29,207h25.42a1.91,1.91,0,0,1,1.91,2c-.25,4.6-3.79,15.54-14.58,15.53-10.61,0-14.59-11-14.66-15.6A1.91,1.91,0,0,1,167.29,207Z" transform="translate(-93.88 -94.88)"/></svg>